<?xml version="1.0" encoding="UTF-8"?>
<svg width="1200pt" height="1200pt" version="1.1" viewBox="0 0 1200 1200" xmlns="http://www.w3.org/2000/svg">
 <g fill="#fff">
  <path d="m950.33 909.86h-700.66c-20.832-0.023437-40.801-8.3086-55.531-23.039s-23.016-34.699-23.039-55.531v-462.59c0.023438-20.832 8.3086-40.801 23.039-55.531s34.699-23.016 55.531-23.039h700.66c20.832 0.023437 40.801 8.3086 55.531 23.039s23.016 34.699 23.039 55.531v462.59c-0.023438 20.832-8.3086 40.801-23.039 55.531s-34.699 23.016-55.531 23.039zm-700.66-569.52c-7.5195 0.011719-14.727 3-20.043 8.3164-5.3164 5.3164-8.3047 12.523-8.3125 20.043v462.59c0.007813 7.5195 2.9961 14.727 8.3125 20.043 5.3164 5.3164 12.523 8.3047 20.043 8.3125h700.66c7.5195-0.007813 14.727-2.9961 20.043-8.3125 5.3164-5.3164 8.3047-12.523 8.3125-20.043v-462.59c-0.007813-7.5195-2.9961-14.727-8.3125-20.043-5.3164-5.3164-12.523-8.3047-20.043-8.3164z"/>
  <path d="m600 690.12c-29.816-0.003907-58.562-11.109-80.641-31.148l-250.84-226.62c-6.6562-6.0117-9.5977-15.121-7.7188-23.891 1.8789-8.7734 8.2969-15.875 16.832-18.633 8.5352-2.7578 17.895-0.75 24.551 5.2617l250.83 226.62c12.863 11.676 29.609 18.148 46.984 18.148 17.371 0 34.117-6.4727 46.98-18.148l250.83-226.62c6.6562-6.0039 16.012-8.0039 24.543-5.2461s14.945 9.8555 16.824 18.621c1.8828 8.7656-1.0547 17.871-7.7031 23.887l-250.84 226.61c-22.078 20.043-50.824 31.148-80.645 31.152z"/>
 </g>
</svg>
