<?xml version="1.0" encoding="UTF-8"?>
<svg width="1200pt" height="1200pt" version="1.1" viewBox="0 0 1200 1200" xmlns="http://www.w3.org/2000/svg">
 <path d="m551.89 308.66c0.09375-36.25-14.316-71.035-40.012-96.602l-50.887-50.812c-25.648-25.609-60.414-39.992-96.656-39.992-36.246 0-71.008 14.383-96.656 39.992l-82.762 82.727c-28.641 29.012-48.496 65.531-57.266 105.34-8.7734 39.812-6.1055 81.293 7.6875 119.66 49.281 123.77 122 236.85 214.16 333.04 57.262 57.602 227.85 201.49 361.88 253.88 34.312 14.367 71 22.227 108.19 23.176 44.191 1.1055 86.871-16.105 117.94-47.551l100.2-100.24c25.559-25.652 39.906-60.387 39.906-96.598 0-36.211-14.348-70.945-39.906-96.602l-50.887-50.961c-26.039-24.855-60.656-38.727-96.656-38.727s-70.617 13.871-96.656 38.727c-10.258 10.254-23.797 16.57-38.246 17.84-14.445 1.2656-28.879-2.5938-40.766-10.902-44.617-29.559-86.891-62.504-126.45-98.551-31.082-34.758-59.355-71.926-84.562-111.15-8.0586-12.09-11.621-26.625-10.066-41.07 1.5547-14.445 8.1289-27.887 18.578-37.98 25.672-25.594 40.039-60.391 39.898-96.637zm-17.324 339.56c42.676 39.383 88.449 75.273 136.88 107.32 26.316 18.418 58.281 26.969 90.273 24.148 31.996-2.8164 61.977-16.828 84.664-39.562 11.754-11.211 27.371-17.465 43.613-17.465 16.242 0 31.859 6.2539 43.613 17.465l50.922 51.113c11.523 11.574 17.992 27.242 17.992 43.574s-6.4688 32-17.992 43.574l-100.2 100.24c-11.477 11.25-46.426 46.426-145.65 7.5-116.25-45.414-276.15-176.7-335.96-236.89h-0.003906c-84.422-88.363-151.21-192.03-196.76-305.44-9.0859-24.992-10.906-52.051-5.2422-78.035 5.6602-25.984 18.57-49.832 37.23-68.777l82.762-82.836c11.559-11.586 27.25-18.094 43.613-18.094s32.055 6.5078 43.613 18.094l50.887 50.926v-0.003906c11.605 11.527 18.113 27.219 18.074 43.578-0.042969 16.848-6.9336 32.953-19.086 44.625-22.402 22.457-36.309 52-39.332 83.574-3.0234 31.578 5.0234 63.223 22.758 89.523 27.688 43.125 58.91 83.875 93.336 121.84z" fill="#fff"/>
</svg>
