<?xml version="1.0" encoding="UTF-8"?>
<svg width="1200pt" height="1200pt" version="1.1" viewBox="0 0 1200 1200" xmlns="http://www.w3.org/2000/svg">
 <path d="m944.16 136.86c-190.25-182.48-498.07-182.48-688.31 0-175.88 168.71-191.97 437.91-36.879 624.92l352.17 424.66c7.1211 8.5898 17.703 13.562 28.863 13.562s21.742-4.9727 28.867-13.562l352.17-424.66c155.09-187.02 139-456.21-36.879-624.92zm-636.39 54.129c161.23-154.65 423.25-154.65 584.48 0 147.72 141.69 160.86 366.4 31.062 522.92l-323.3 389.85-323.3-389.85c-129.8-156.52-116.66-381.23 31.062-522.92zm179.74 259.01c0-62.133 50.371-112.5 112.5-112.5 62.133 0 112.5 50.367 112.5 112.5s-50.367 112.5-112.5 112.5c-62.129 0-112.5-50.367-112.5-112.5zm112.5-187.5c-103.55 0-187.5 83.945-187.5 187.5 0 103.55 83.949 187.5 187.5 187.5s187.5-83.949 187.5-187.5c0-103.55-83.949-187.5-187.5-187.5z" fill="#fff" fill-rule="evenodd"/>
</svg>
